<svg width="127" height="149" viewBox="0 0 127 149" fill="none" xmlns="http://www.w3.org/2000/svg">
<g clip-path="url(#clip0_323_8733)">
<path d="M14.6589 4.6341L10.9331 5.58961L10.7062 4.77915C10.5739 4.30627 10.6432 3.80242 10.8989 3.37844C11.1547 2.95447 11.5759 2.6451 12.07 2.51839C12.564 2.39168 13.0905 2.45801 13.5334 2.70279C13.9764 2.94758 14.2996 3.35076 14.432 3.82364L14.6589 4.6341ZM14.1056 13.0316C12.7508 13.3791 11.5506 11.6855 11.1876 10.3888C11.0061 9.74041 11.1633 9.00518 11.2297 7.94576L11.2962 6.88635L15.0219 5.93083C15.2034 6.5792 15.8144 7.46489 16.2682 9.08581C16.722 10.7067 15.8005 12.5969 14.1056 13.0316ZM4.49199 9.95308L4.41554 9.11724C4.37094 8.62949 4.53061 8.14477 4.85941 7.76969C5.18822 7.39462 5.65923 7.15992 6.16883 7.11723C6.67842 7.07455 7.18487 7.22737 7.57674 7.54207C7.96862 7.85678 8.21383 8.30759 8.25843 8.79534L8.33402 9.63071L4.49199 9.95308ZM8.01229 17.6624C6.26437 17.8091 4.72341 16.3349 4.57052 14.6632C4.41745 12.9909 4.67524 11.9589 4.61364 11.2902L8.45653 10.9683L8.89758 11.942C9.33862 12.9158 9.74862 13.5556 9.81004 14.2236C9.93255 15.5612 9.40978 17.5451 8.01229 17.6624Z" fill="#BEBEBE"/>
</g>
<g clip-path="url(#clip1_323_8733)">
<path d="M23.143 33.7182L19.6367 35.2566L19.2714 34.4939C19.0582 34.0489 19.0385 33.541 19.2166 33.0821C19.3946 32.6232 19.7559 32.2507 20.2209 32.0467C20.6858 31.8427 21.2164 31.8238 21.6959 31.9943C22.1754 32.1647 22.5646 32.5105 22.7777 32.9555L23.143 33.7182ZM24.0648 42.086C22.7898 42.6455 21.3106 41.1679 20.7261 39.9475C20.4339 39.3373 20.4604 38.5873 20.3408 37.5321L20.2212 36.477L23.7275 34.9386C24.0198 35.5488 24.7769 36.3242 25.5075 37.8496C26.2381 39.3751 25.6599 41.3862 24.0648 42.086ZM14.0487 40.5897L13.8273 39.7779C13.6981 39.3041 13.7708 38.8007 14.0294 38.3782C14.2881 37.9558 14.7114 37.649 15.2064 37.5254C15.7014 37.4017 16.2274 37.4713 16.6687 37.7189C17.1101 37.9664 17.4306 38.3716 17.5598 38.8454L17.7803 39.6569L14.0487 40.5897ZM18.8665 47.6269C17.1688 48.0513 15.3919 46.8446 14.9491 45.2209C14.506 43.5967 14.5798 42.5379 14.4023 41.8885L18.1348 40.956L18.7397 41.8454C19.3447 42.7348 19.8607 43.3 20.038 43.9488C20.3925 45.2479 20.2238 47.2876 18.8665 47.6269Z" fill="#BEBEBE"/>
</g>
<g clip-path="url(#clip2_323_8733)">
<path d="M41.7557 63.9293L38.5344 65.9599L38.0522 65.2592C37.7708 64.8504 37.6707 64.3513 37.7738 63.8718C37.8769 63.3922 38.1749 62.9716 38.602 62.7023C39.0292 62.433 39.5506 62.3372 40.0516 62.4359C40.5526 62.5346 40.9921 62.8197 41.2735 63.2285L41.7557 63.9293ZM43.9956 72.0657C42.8243 72.8042 41.1276 71.5589 40.3561 70.4378C39.9704 69.8772 39.8775 69.132 39.5917 68.1065L39.3059 67.0811L42.5272 65.0504C42.9129 65.611 43.7844 66.2673 44.7488 67.6687C45.7131 69.0701 45.461 71.142 43.9956 72.0657ZM33.8582 72.0439L33.5105 71.2738C33.3075 70.8243 33.2995 70.3161 33.488 69.861C33.6766 69.4058 34.0463 69.041 34.5159 68.8468C34.9854 68.6526 35.5164 68.6449 35.9919 68.8253C36.4674 69.0058 36.8486 69.3597 37.0515 69.8091L37.3983 70.5791L33.8582 72.0439ZM39.7376 78.2985C38.127 78.965 36.1792 78.0308 35.4837 76.4904C34.7878 74.9495 34.6926 73.8922 34.414 73.2762L37.955 71.8115L38.6942 72.6026C39.4334 73.3937 40.0332 73.8772 40.3114 74.4927C40.8681 75.7252 41.0253 77.7657 39.7376 78.2985Z" fill="#BEBEBE"/>
</g>
<g clip-path="url(#clip3_323_8733)">
<path d="M64.6918 92.9109L61.6631 95.1971L61.1202 94.5383C60.8035 94.1539 60.6593 93.6648 60.7193 93.1786C60.7793 92.6924 61.0387 92.2489 61.4403 91.9458C61.8419 91.6426 62.3529 91.5046 62.8609 91.562C63.3688 91.6195 63.8321 91.8677 64.1489 92.2521L64.6918 92.9109ZM67.6484 100.835C66.5471 101.666 64.7457 100.564 63.8771 99.5099C63.4428 98.9829 63.2839 98.248 62.9078 97.2496L62.5317 96.2512L65.5603 93.965C65.9946 94.4921 66.9214 95.0748 68.0071 96.3924C69.0928 97.7101 69.0262 99.795 67.6484 100.835ZM57.546 101.641L57.1309 100.902C56.8886 100.47 56.8353 99.9646 56.9826 99.4958C57.1299 99.0269 57.4658 98.6332 57.9164 98.4014C58.367 98.1696 58.8953 98.1185 59.3852 98.2595C59.875 98.4005 60.2863 98.722 60.5286 99.1532L60.9427 99.8921L57.546 101.641ZM63.9611 107.393C62.4158 108.188 60.3919 107.416 59.5616 105.938C58.731 104.46 58.542 103.414 58.2095 102.823L61.6071 101.075L62.4141 101.803C63.2211 102.53 63.8618 102.963 64.1938 103.554C64.8583 104.736 65.1966 106.757 63.9611 107.393Z" fill="#BEBEBE"/>
</g>
<g clip-path="url(#clip4_323_8733)">
<path d="M86.9243 111.103L84.4362 113.924L83.7664 113.382C83.3755 113.067 83.1317 112.615 83.0887 112.127C83.0456 111.64 83.2068 111.155 83.5367 110.781C83.8667 110.407 84.3384 110.174 84.848 110.133C85.3577 110.091 85.8636 110.246 86.2545 110.561L86.9243 111.103ZM91.4812 118.298C90.5765 119.324 88.5807 118.59 87.5089 117.724C86.973 117.291 86.6633 116.602 86.0857 115.696L85.508 114.79L87.9961 111.969C88.532 112.402 89.5621 112.795 90.9018 113.877C92.2415 114.96 92.6131 117.015 91.4812 118.298ZM81.7528 121.027L81.1913 120.382C80.8636 120.006 80.7054 119.521 80.7515 119.033C80.7976 118.546 81.0442 118.096 81.437 117.782C81.8298 117.468 82.3368 117.317 82.8462 117.361C83.3557 117.405 83.826 117.641 84.1536 118.017L84.7142 118.662L81.7528 121.027ZM89.2428 125.43C87.8956 126.506 85.751 126.139 84.628 124.85C83.5044 123.561 83.1002 122.573 82.6506 122.058L85.6129 119.693L86.556 120.251C87.4991 120.809 88.2174 121.11 88.6665 121.625C89.5652 122.656 90.32 124.57 89.2428 125.43Z" fill="#BEBEBE"/>
</g>
<g clip-path="url(#clip5_323_8733)">
<path d="M114.02 131.973L112.589 135.401L111.775 135.09C111.3 134.908 110.92 134.553 110.718 134.103C110.517 133.654 110.51 133.145 110.7 132.691C110.889 132.236 111.26 131.872 111.73 131.679C112.2 131.486 112.731 131.48 113.206 131.661L114.02 131.973ZM120.717 137.424C120.196 138.671 118.06 138.577 116.758 138.079C116.107 137.83 115.585 137.269 114.739 136.584L113.892 135.899L115.323 132.471C115.974 132.72 117.081 132.781 118.709 133.404C120.337 134.026 121.368 135.864 120.717 137.424ZM112.385 142.951L111.64 142.51C111.205 142.252 110.895 141.839 110.778 141.362C110.661 140.886 110.746 140.384 111.015 139.968C111.285 139.552 111.716 139.255 112.214 139.143C112.712 139.031 113.236 139.113 113.671 139.371L114.415 139.813L112.385 142.951ZM120.944 144.868C120.02 146.296 117.864 146.595 116.374 145.711C114.882 144.827 114.173 144.012 113.577 143.659L115.608 140.52L116.687 140.765C117.766 141.009 118.547 141.078 119.142 141.431C120.335 142.138 121.683 143.726 120.944 144.868Z" fill="#BEBEBE"/>
</g>
<defs>
<clipPath id="clip0_323_8733">
<rect width="16.784" height="16.1591" fill="white" transform="matrix(-0.968652 0.248421 -0.269588 -0.962976 20.6357 15.6099)"/>
</clipPath>
<clipPath id="clip1_323_8733">
<rect width="16.7083" height="16.2374" fill="white" transform="matrix(-0.915734 0.401785 -0.43196 -0.901893 30.9536 43.5825)"/>
</clipPath>
<clipPath id="clip2_323_8733">
<rect width="16.6164" height="16.3314" fill="white" transform="matrix(-0.845943 0.533273 -0.566883 -0.823798 51.042 72.543)"/>
</clipPath>
<clipPath id="clip3_323_8733">
<rect width="16.5584" height="16.3902" fill="white" transform="matrix(-0.79814 0.602471 -0.635919 -0.771756 74.7109 100.735)"/>
</clipPath>
<clipPath id="clip4_323_8733">
<rect width="16.4139" height="16.535" fill="white" transform="matrix(-0.661467 0.749974 -0.777834 -0.62847 98.3799 116.845)"/>
</clipPath>
<clipPath id="clip5_323_8733">
<rect width="16.211" height="16.734" fill="white" transform="matrix(-0.385163 0.922849 -0.934056 -0.357127 126.783 133.961)"/>
</clipPath>
</defs>
</svg>
