<svg width="42" height="40" viewBox="0 0 42 40" fill="none" xmlns="http://www.w3.org/2000/svg">
<circle cx="19.852" cy="19.5439" r="19.2647" stroke="#FFA624" stroke-width="0.558397"/>
<path d="M27.8928 28.478H11.811C11.2779 28.478 10.7666 28.2574 10.3896 27.8647C10.0126 27.472 9.80078 26.9394 9.80078 26.384V13.8201C9.80078 13.2647 10.0126 12.7321 10.3896 12.3394C10.7666 11.9467 11.2779 11.7261 11.811 11.7261H27.8928C28.426 11.7261 28.9373 11.9467 29.3143 12.3394C29.6913 12.7321 29.9031 13.2647 29.9031 13.8201V26.384C29.9031 26.9394 29.6913 27.472 29.3143 27.8647C28.9373 28.2574 28.426 28.478 27.8928 28.478ZM12.8161 21.149V23.243H23.8724V21.149H12.8161ZM12.8161 16.961V19.055H26.8877V16.961H12.8161Z" fill="#FFA624"/>
</svg>
