<svg width="24" height="17" viewBox="0 0 24 17" fill="none" xmlns="http://www.w3.org/2000/svg">
<path d="M4.07005 0.494873C3.13591 0.494873 2.24002 0.85005 1.57948 1.48227C0.918939 2.11449 0.547852 2.97196 0.547852 3.86605V4.54029H23.0862V3.86605C23.0862 2.97196 22.7151 2.11449 22.0545 1.48227C21.394 0.85005 20.4981 0.494873 19.564 0.494873H4.07005ZM0.547852 13.3054V5.88876H23.0862V13.3054C23.0862 14.1994 22.7151 15.0569 22.0545 15.6891C21.394 16.3214 20.4981 16.6765 19.564 16.6765H4.07099C3.13685 16.6765 2.24096 16.3214 1.58042 15.6891C0.919879 15.0569 0.548791 14.1994 0.548791 13.3054H0.547852ZM15.807 10.8332C15.6201 10.8332 15.441 10.9042 15.3088 11.0306C15.1767 11.1571 15.1025 11.3286 15.1025 11.5074C15.1025 11.6862 15.1767 11.8577 15.3088 11.9841C15.441 12.1106 15.6201 12.1816 15.807 12.1816H19.0943C19.2812 12.1816 19.4604 12.1106 19.5925 11.9841C19.7246 11.8577 19.7988 11.6862 19.7988 11.5074C19.7988 11.3286 19.7246 11.1571 19.5925 11.0306C19.4604 10.9042 19.2812 10.8332 19.0943 10.8332H15.807Z" fill="#417BD1"/>
</svg>
