<svg width="42" height="40" viewBox="0 0 42 40" fill="none" xmlns="http://www.w3.org/2000/svg">
<circle cx="19.8344" cy="19.5439" r="19.2647" stroke="#FFA624" stroke-width="0.558397"/>
<path d="M19.8341 6.14258C27.2358 6.14258 33.2357 12.1424 33.2357 19.5441C33.2357 26.9458 27.2358 32.9456 19.8341 32.9456C12.4325 32.9456 6.43262 26.9458 6.43262 19.5441C6.43262 12.1424 12.4325 6.14258 19.8341 6.14258ZM22.5145 21.4203L20.4185 23.0969C20.3449 23.1557 20.2846 23.2295 20.2414 23.3133C20.1983 23.3971 20.1733 23.489 20.1681 23.5831C20.1629 23.6772 20.1777 23.7713 20.2113 23.8594C20.245 23.9474 20.2969 24.0273 20.3635 24.0939L22.024 25.7544C22.3455 26.0763 22.5798 26.4748 22.7048 26.9123L22.9393 27.7338C23.0365 28.0785 23.2093 28.3972 23.445 28.6667C23.6808 28.9363 23.9736 29.1501 24.3022 29.2924C25.5842 28.7034 26.7376 27.8677 27.6968 26.8332L27.3832 24.3177C27.3284 23.8801 27.1663 23.4628 26.9115 23.1027C26.6567 22.7427 26.317 22.4512 25.9225 22.2539L23.9524 21.2675C23.7232 21.1528 23.4659 21.1063 23.2111 21.1333C22.9562 21.1604 22.7144 21.26 22.5145 21.4203ZM19.8341 8.82288C18.1939 8.82149 16.5752 9.19709 15.1032 9.92068C13.6311 10.6443 12.345 11.6965 11.3443 12.9961L11.1232 13.2923V15.5505C11.123 16.3686 11.3724 17.1674 11.8382 17.84C12.304 18.5127 12.9638 19.0272 13.7298 19.3149L13.9683 19.3954L15.6971 19.9247C17.5371 20.4876 19.3289 18.9906 19.1507 17.1158L19.1252 16.9214L18.8907 15.5156C18.8389 15.2042 18.8986 14.8845 19.0595 14.6128C19.2203 14.3412 19.4719 14.135 19.7698 14.0307L19.9146 13.9905L20.7347 13.8029C21.2001 13.6965 21.6394 13.498 22.0268 13.2191C22.4142 12.9402 22.7418 12.5865 22.9902 12.1789C23.2387 11.7713 23.403 11.318 23.4734 10.8459C23.5438 10.3738 23.519 9.89234 23.4003 9.42997C22.2546 9.02675 21.0487 8.82146 19.8341 8.82288Z" fill="#FFA624"/>
</svg>
