<svg width="42" height="40" viewBox="0 0 42 40" fill="none" xmlns="http://www.w3.org/2000/svg">
<circle cx="20.1899" cy="19.5439" r="19.2647" stroke="#FFA624" stroke-width="0.558397"/>
<path d="M28.2307 28.478H12.1489C11.6158 28.478 11.1044 28.2574 10.7275 27.8647C10.3505 27.472 10.1387 26.9394 10.1387 26.384V13.8201C10.1387 13.2647 10.3505 12.7321 10.7275 12.3394C11.1044 11.9467 11.6158 11.7261 12.1489 11.7261H28.2307C28.7639 11.7261 29.2752 11.9467 29.6522 12.3394C30.0292 12.7321 30.241 13.2647 30.241 13.8201V26.384C30.241 26.9394 30.0292 27.472 29.6522 27.8647C29.2752 28.2574 28.7639 28.478 28.2307 28.478ZM13.154 21.149V23.243H24.2103V21.149H13.154ZM13.154 16.961V19.055H27.2256V16.961H13.154Z" fill="#FFA624"/>
</svg>
