<svg width="308" height="235" viewBox="0 0 308 235" fill="none" xmlns="http://www.w3.org/2000/svg">
<path d="M297.005 0.397217H11.0367C5.20892 0.397217 0.48407 5.12262 0.48407 10.9524V223.631C0.48407 229.461 5.20892 234.186 11.0367 234.186H297.004C302.832 234.186 307.557 229.46 307.557 223.631V10.9524C307.557 5.12262 302.832 0.397217 297.005 0.397217Z" fill="#8CACC0"/>
<path d="M307.557 223.629V10.9543C307.557 5.12024 302.831 0.398438 297.004 0.398438H280.013C285.84 0.398438 290.566 5.12024 290.566 10.9543V223.628C290.566 229.462 285.84 234.184 280.013 234.184H297.004C302.831 234.184 307.557 229.463 307.557 223.629Z" fill="#9FC7DF"/>
<path d="M307.557 46.1065V10.9543C307.557 5.12024 302.831 0.398438 297.004 0.398438H11.0373C5.21066 0.399037 0.484009 5.12084 0.484009 10.9543V46.1065H307.557Z" fill="#E3F4FF"/>
<path d="M307.557 46.1065V10.9543C307.557 5.12024 302.831 0.398438 297.004 0.398438H280.013C285.84 0.398438 290.566 5.12024 290.566 10.9543V46.1065H307.557Z" fill="#BDDFF4"/>
<path d="M59.8637 27.8439H59.8056C57.2464 27.8439 55.1719 25.7688 55.1719 23.209C55.1719 20.6493 57.2464 18.5742 59.8056 18.5742C62.3647 18.5742 64.4686 20.6493 64.4686 23.209C64.4686 25.7688 62.4229 27.8439 59.8637 27.8439Z" fill="#54DDAC"/>
<path d="M44.681 27.8882C42.1441 27.8882 40.0749 25.845 40.0485 23.3014C40.0216 20.7416 42.0745 18.645 44.6336 18.618C47.1652 18.5838 49.3177 20.6444 49.3447 23.2042C49.3717 25.7646 47.3475 27.8606 44.7884 27.8876L44.7302 27.8882C44.714 27.8882 44.6972 27.8882 44.681 27.8882Z" fill="#FDC142"/>
<path d="M29.5571 27.932C27.0201 27.932 24.9504 25.8887 24.9246 23.3452C24.8982 20.7848 26.9511 18.6881 29.5103 18.6617C29.5265 18.6617 29.5433 18.6617 29.5589 18.6617C32.0964 18.6617 34.1943 20.705 34.2207 23.2486C34.2471 25.8083 32.2236 27.905 29.6638 27.9314L29.6056 27.932C29.59 27.932 29.5732 27.932 29.5571 27.932Z" fill="#FC3E81"/>
<path d="M104.148 27.932H88.0671C85.508 27.932 83.4334 25.8569 83.4334 23.2972C83.4334 20.7374 85.508 18.6624 88.0671 18.6624H104.148C106.707 18.6624 108.782 20.7374 108.782 23.2972C108.782 25.8569 106.707 27.932 104.148 27.932Z" fill="#BDDFF4"/>
<path d="M100.21 111.797H96.1904V106.321C96.1904 101.756 92.4849 98.0552 87.9136 98.0552C83.3424 98.0552 79.6368 101.756 79.6368 106.321V111.797H60.3225L74.2305 88.2818C76.5552 84.351 75.2492 79.2824 71.3132 76.9609C67.3773 74.6387 62.3022 75.9436 59.9775 79.8738L38.6943 115.859C37.1832 118.414 37.1598 121.583 38.6325 124.161C40.1059 126.738 42.8492 128.329 45.8211 128.329H79.6374V153.241C79.6374 157.806 83.343 161.507 87.9142 161.507C92.4855 161.507 96.191 157.806 96.191 153.241V128.329H100.211C104.782 128.329 108.488 124.628 108.488 120.063C108.487 115.498 104.782 111.797 100.21 111.797Z" fill="white"/>
<path d="M262.22 111.797H258.2V106.321C258.2 101.756 254.495 98.0551 249.924 98.0551C245.352 98.0551 241.647 101.756 241.647 106.321V111.797H222.332L236.24 88.2817C238.564 84.3509 237.258 79.2823 233.323 76.9607C229.387 74.6386 224.311 75.9434 221.987 79.8737L200.704 115.859C199.192 118.414 199.169 121.583 200.642 124.16C202.115 126.738 204.859 128.329 207.83 128.329H241.647V153.24C241.647 157.806 245.352 161.506 249.924 161.506C254.495 161.506 258.2 157.806 258.2 153.24V128.329H262.22C266.791 128.329 270.497 124.628 270.497 120.063C270.497 115.498 266.791 111.797 262.22 111.797Z" fill="white"/>
<path fillRule="evenodd" clipRule="evenodd" d="M143.43 161.505H164.612C175.091 161.505 183.617 152.991 183.617 142.525V94.7899C183.617 84.3245 175.091 75.8098 164.612 75.8098H143.43C132.951 75.8098 124.425 84.3239 124.425 94.7899V142.525C124.425 152.991 132.951 161.505 143.43 161.505ZM142.5 98.0587C142.5 95.7449 144.386 93.8618 146.703 93.8618H161.339C163.656 93.8618 165.541 95.7449 165.541 98.0587V139.256C165.541 141.571 163.656 143.453 161.339 143.453H146.703C144.386 143.453 142.5 141.57 142.5 139.256V98.0587Z" fill="white"/>
<path d="M223.524 214.932C220.955 214.932 218.843 212.849 218.843 210.28C218.843 207.71 220.896 205.628 223.465 205.628H223.524C226.093 205.628 228.176 207.711 228.176 210.28C228.176 212.849 226.093 214.932 223.524 214.932Z" fill="#E3F4FF"/>
<path d="M238.931 214.976C236.362 214.976 234.249 212.893 234.249 210.324C234.249 207.755 236.302 205.672 238.872 205.672H238.931C241.5 205.672 243.583 207.755 243.583 210.324C243.583 212.893 241.5 214.976 238.931 214.976Z" fill="#E3F4FF"/>
<path d="M254.339 215.021C254.322 215.021 254.306 215.021 254.29 215.021C251.721 214.995 249.63 212.891 249.656 210.321C249.682 207.768 251.731 205.716 254.278 205.716C254.294 205.716 254.31 205.716 254.327 205.716L254.386 205.717C256.955 205.744 259.016 207.847 258.989 210.417C258.963 212.969 256.885 215.021 254.339 215.021Z" fill="#E3F4FF"/>
<path d="M55.4715 195.826H40.0649C37.4957 195.826 35.413 193.762 35.413 191.215C35.413 188.668 37.4957 186.604 40.0649 186.604H55.4715C58.0407 186.604 60.1234 188.668 60.1234 191.215C60.1234 193.762 58.0407 195.826 55.4715 195.826Z" fill="#E3F4FF"/>
<path d="M70.8782 214.979H40.0649C37.4957 214.979 35.413 212.914 35.413 210.367C35.413 207.821 37.4957 205.756 40.0649 205.756H70.8782C73.4474 205.756 75.53 207.821 75.53 210.367C75.53 212.914 73.4474 214.979 70.8782 214.979Z" fill="#E3F4FF"/>
</svg>
