<svg width="1440" height="900" viewBox="0 0 1440 900" fill="none" xmlns="http://www.w3.org/2000/svg">
<g clipPath="url(#clip0_310_9897)">
<rect width="1440" height="900" fill="white"/>
<rect width="1440" height="900" fill="#FF7300"/>
<path fillRule="evenodd" clipRule="evenodd" d="M178.338 1105.68C388.393 1105.68 558.677 935.393 558.677 725.338C558.677 613.043 287.683 706.143 210.291 636.522C142.917 575.912 276.098 345 178.338 345C-31.7168 345 -202 515.283 -202 725.338C-202 935.393 -31.7168 1105.68 178.338 1105.68Z" fill="#FF8F32" fill-opacity="0.54"/>
<path opacity="0.541829" fillRule="evenodd" clipRule="evenodd" d="M681.562 -141.92C639.096 98.9204 799.909 328.586 1040.75 371.053C1169.5 393.755 1117.54 64.2234 1213.02 -10.4354C1296.13 -75.4309 1533.96 123.953 1553.72 11.8654C1596.19 -228.975 1435.38 -458.641 1194.54 -501.107C953.695 -543.574 724.029 -382.76 681.562 -141.92Z" fill="#FFAB66" fill-opacity="0.58"/>
<path opacity="0.6" fillRule="evenodd" clipRule="evenodd" d="M48.4011 -250.917C-148.986 -179.074 -250.76 39.1806 -178.917 236.568C-140.51 342.09 82.299 161.92 178.835 200.873C262.877 234.785 216.703 497.321 308.568 463.885C505.955 392.042 607.729 173.788 535.885 -23.5989C464.042 -220.986 245.788 -322.76 48.4011 -250.917Z" fill="#FFAB66" fill-opacity="0.58"/>
<path fillRule="evenodd" clipRule="evenodd" d="M1652.09 912.722C1698.96 646.919 1521.48 393.449 1255.67 346.581C1113.58 321.526 1170.92 685.212 1065.55 767.609C973.823 839.341 711.345 619.292 689.532 742.997C642.664 1008.8 820.146 1262.27 1085.95 1309.14C1351.75 1356.01 1605.22 1178.52 1652.09 912.722Z" fill="#FF8F32" fill-opacity="0.54"/>
</g>
<defs>
<clipPath id="clip0_310_9897">
<rect width="1440" height="900" fill="white"/>
</clipPath>
</defs>
</svg>
