<svg width="68" height="55" viewBox="0 0 68 55" fill="none" xmlns="http://www.w3.org/2000/svg">
<path d="M17.7467 15.239L17.7467 15.239L17.7428 15.2451C16.7966 16.7603 16.26 18.4952 16.1854 20.2801L16.1637 20.8009H16.685H27.0892C27.854 20.8009 28.5874 21.1047 29.1281 21.6455C29.6689 22.1863 29.9727 22.9197 29.9727 23.6844V47.3689C29.9727 50.8247 27.1616 53.6359 23.7057 53.6359H3.40477C2.64002 53.6359 1.90659 53.3321 1.36583 52.7913C0.825071 52.2505 0.521275 51.5171 0.521275 50.7524V33.8349L0.531425 23.959L0.531446 23.9385L0.52979 23.9181C0.501664 23.5712 -0.124301 14.8607 6.11028 8.09397C10.7332 3.08221 17.7623 0.5 27.0892 0.5H29.9727V9.12826L27.6543 9.59251C22.9507 10.5332 19.5748 12.4036 17.7467 15.239ZM37.7498 23.959L37.7499 23.9385L37.7482 23.9181C37.7201 23.5712 37.0941 14.8607 43.3287 8.09397C47.9516 3.08221 54.9807 0.5 64.3076 0.5H67.1911V9.12826L64.8727 9.59251C60.1691 10.5332 56.7932 12.4036 54.9651 15.239L54.9651 15.239L54.9613 15.2451C54.015 16.7603 53.4784 18.4952 53.4038 20.2801L53.3821 20.8009H53.9034H64.3076C65.0724 20.8009 65.8058 21.1047 66.3466 21.6455C66.8873 22.1863 67.1911 22.9197 67.1911 23.6844V47.3689C67.1911 50.8247 64.38 53.6359 60.9241 53.6359H40.6232C39.8584 53.6359 39.125 53.3321 38.5842 52.7913C38.0435 52.2505 37.7397 51.5171 37.7397 50.7524V33.8354V33.8349L37.7498 23.959Z" fill="black" stroke="black"/>
</svg>
