<svg width="20" height="24" viewBox="0 0 20 24" fill="none" xmlns="http://www.w3.org/2000/svg">
<path d="M15.7742 12.6346C13.6922 12.6346 11.9389 14.3231 11.9389 16.3054C11.9389 19.0428 15.7742 23.1227 15.7742 23.1227C15.7742 23.1227 19.6095 19.0428 19.6095 16.3054C19.6095 14.3231 17.8562 12.6346 15.7742 12.6346ZM15.7742 17.6793C15.0071 17.6793 14.4592 17.0501 14.4592 16.4208C14.4592 15.6866 15.1167 15.1622 15.7742 15.1622C16.4317 15.1622 17.0892 15.781 17.0892 16.4208C17.1987 17.0501 16.5413 17.6793 15.7742 17.6793ZM12.9361 23.1227H3.17255C2.5913 23.1227 2.03386 22.9017 1.62286 22.5083C1.21186 22.1149 0.980957 21.5814 0.980957 21.025V2.14645C0.980957 0.98227 1.95622 0.0488281 3.17255 0.0488281H14.1305C14.7117 0.0488281 15.2692 0.269827 15.6802 0.663207C16.0912 1.05659 16.3221 1.59013 16.3221 2.14645V10.5684C16.1468 10.5369 15.9605 10.5369 15.7742 10.5369C15.2263 10.5369 14.6784 10.6208 14.1305 10.7677V4.24407H3.17255V18.9274H10.3391C10.9965 20.5006 12.0704 22.0424 12.9361 23.1227Z" fill="#32C125"/>
</svg>
