<svg width="122" height="141" viewBox="0 0 122 141" fill="none" xmlns="http://www.w3.org/2000/svg">
<g clip-path="url(#clip0_323_8752)">
<path d="M5.23198 129.324L8.30995 131.549L7.78161 132.219C7.47334 132.61 7.01555 132.867 6.50896 132.935C6.00236 133.002 5.48845 132.874 5.08029 132.579C4.67213 132.284 4.40314 131.846 4.3325 131.361C4.26187 130.876 4.39537 130.385 4.70364 129.994L5.23198 129.324ZM12.4918 124.579C13.6111 125.388 12.9534 127.335 12.1081 128.407C11.6854 128.942 10.9829 129.276 10.0691 129.877L9.15528 130.478L6.07731 128.253C6.49998 127.717 6.85417 126.712 7.91084 125.373C8.96751 124.034 11.0916 123.567 12.4918 124.579ZM15.8655 133.729L15.2238 134.3C14.8493 134.634 14.3517 134.811 13.8405 134.794C13.3293 134.776 12.8463 134.565 12.4978 134.207C12.1494 133.848 11.9639 133.372 11.9823 132.883C12.0007 132.393 12.2214 131.931 12.5959 131.598L13.2378 131.027L15.8655 133.729ZM20.0538 126.332C21.2493 127.561 20.982 129.631 19.6985 130.774C18.4146 131.917 17.4057 132.357 16.8925 132.815L14.2647 130.112L14.7959 129.18C15.3271 128.249 15.6022 127.546 16.1149 127.089C17.1418 126.174 19.098 125.349 20.0538 126.332Z" fill="#BEBEBE"/>
</g>
<g clip-path="url(#clip1_323_8752)">
<path d="M35.5372 105.47L38.6151 107.695L38.0868 108.365C37.7785 108.756 37.3207 109.013 36.8141 109.081C36.3075 109.148 35.7936 109.02 35.3855 108.725C34.9773 108.43 34.7083 107.992 34.6377 107.507C34.567 107.022 34.7005 106.531 35.0088 106.14L35.5372 105.47ZM42.797 100.725C43.9162 101.534 43.2586 103.481 42.4132 104.553C41.9906 105.088 41.2881 105.422 40.3743 106.023L39.4605 106.624L36.3825 104.399C36.8052 103.863 37.1593 102.858 38.216 101.519C39.2727 100.18 41.3968 99.713 42.797 100.725ZM46.1707 109.875L45.529 110.446C45.1545 110.78 44.6569 110.957 44.1457 110.94C43.6345 110.922 43.1515 110.711 42.803 110.353C42.4545 109.994 42.2691 109.518 42.2875 109.029C42.3059 108.539 42.5266 108.077 42.9011 107.744L43.543 107.173L46.1707 109.875ZM50.359 102.478C51.5545 103.707 51.2871 105.777 50.0037 106.92C48.7198 108.063 47.7108 108.503 47.1977 108.961L44.5698 106.258L45.101 105.326C45.6323 104.395 45.9074 103.692 46.4201 103.235C47.447 102.32 49.4032 101.495 50.359 102.478Z" fill="#BEBEBE"/>
</g>
<g clip-path="url(#clip2_323_8752)">
<path d="M58.6949 76.1446L62.2247 77.6331L61.8712 78.4009C61.665 78.8489 61.2813 79.2002 60.8045 79.3774C60.3277 79.5546 59.7968 79.5433 59.3288 79.3459C58.8607 79.1485 58.4937 78.7812 58.3085 78.3249C58.1234 77.8685 58.1352 77.3604 58.3414 76.9124L58.6949 76.1446ZM64.6212 69.9297C65.9047 70.4709 65.7322 72.5107 65.1667 73.7392C64.8839 74.3534 64.2803 74.8324 63.5352 75.6185L62.7902 76.4045L59.2604 74.9161C59.5432 74.3018 59.6464 73.2451 60.3533 71.7094C61.0602 70.1738 63.0154 69.2526 64.6212 69.9297ZM70.1014 78.0925L69.614 78.7899C69.3296 79.1969 68.888 79.4791 68.3862 79.5744C67.8844 79.6697 67.3637 79.5703 66.9385 79.2981C66.5133 79.0259 66.2184 78.6032 66.1189 78.1229C66.0193 77.6427 66.1231 77.1443 66.4075 76.7373L66.8952 76.0407L70.1014 78.0925ZM72.4016 69.9722C73.8602 70.9056 74.0969 72.9786 73.1223 74.3734C72.1473 75.7689 71.271 76.419 70.8814 76.9772L67.675 74.9245L67.9683 73.901C68.2616 72.8776 68.3607 72.133 68.7499 71.5754C69.5297 70.4592 71.2354 69.2259 72.4016 69.9722Z" fill="#BEBEBE"/>
</g>
<g clip-path="url(#clip3_323_8752)">
<path d="M85.0316 47.6792L88.7645 48.6088L88.5438 49.4208C88.415 49.8946 88.0948 50.3 87.6537 50.5478C87.2126 50.7957 86.6867 50.8657 86.1917 50.7424C85.6967 50.6191 85.2731 50.3127 85.0142 49.8905C84.7552 49.4683 84.6821 48.965 84.8109 48.4912L85.0316 47.6792ZM89.8443 40.6379C91.2018 40.9759 91.3719 43.0158 91.0187 44.315C90.8421 44.9646 90.3262 45.5297 89.7219 46.4196L89.1177 47.3095L85.3848 46.3799C85.5614 45.7303 85.4869 44.6714 85.9284 43.0474C86.3698 41.4234 88.1462 40.215 89.8443 40.6379ZM96.6167 47.8578L96.252 48.6208C96.0392 49.066 95.6504 49.4121 95.1709 49.5829C94.6915 49.7537 94.1609 49.7353 93.6957 49.5316C93.2305 49.3279 92.8689 48.9557 92.6905 48.4968C92.512 48.038 92.5313 47.5301 92.7441 47.0848L93.1093 46.3227L96.6167 47.8578ZM97.5319 39.4901C99.1276 40.1885 99.7073 42.1986 98.978 43.7246C98.2485 45.2512 97.492 46.0269 97.2006 46.6375L93.6927 45.1016L93.8114 44.0464C93.9301 42.9912 93.9036 42.241 94.1948 41.6311C94.7782 40.41 96.2561 38.9317 97.5319 39.4901Z" fill="#BEBEBE"/>
</g>
<path d="M106.134 12.5154L109.982 12.7822L109.918 13.6191C109.881 14.1074 109.643 14.5616 109.256 14.8818C108.869 15.2021 108.365 15.3621 107.855 15.3267C107.345 15.2913 106.871 15.0634 106.536 14.6931C106.201 14.3228 106.034 13.8405 106.071 13.3522L106.134 12.5154ZM109.535 4.75598C110.934 4.85301 111.487 6.82964 111.386 8.16861C111.335 8.83809 110.935 9.48332 110.509 10.4633L110.083 11.4432L106.236 11.1764C106.287 10.5069 106.013 9.47843 106.14 7.80472C106.266 6.13101 107.784 4.63458 109.535 4.75598ZM117.562 10.682L117.347 11.4956C117.222 11.9703 116.906 12.3781 116.466 12.6293C116.027 12.8804 115.502 12.9542 115.006 12.8346C114.51 12.715 114.084 12.4116 113.821 11.9913C113.559 11.571 113.482 11.0682 113.607 10.5934L113.822 9.78049L117.562 10.682ZM116.878 2.29403C118.579 2.70413 119.53 4.58044 119.101 6.20765C118.673 7.83553 118.076 8.72958 117.905 9.38063L114.164 8.47845L114.081 7.42012C113.998 6.36179 113.83 5.62867 114.001 4.9783C114.344 3.67625 115.517 1.96614 116.878 2.29403Z" fill="#BEBEBE"/>
<defs>
<clipPath id="clip0_323_8752">
<rect width="16.5729" height="16.3756" fill="white" transform="matrix(0.810426 0.58584 -0.619462 0.785027 10.6016 118.065)"/>
</clipPath>
<clipPath id="clip1_323_8752">
<rect width="16.5729" height="16.3756" fill="white" transform="matrix(0.810426 0.58584 -0.619462 0.785027 40.9067 94.2109)"/>
</clipPath>
<clipPath id="clip2_323_8752">
<rect width="16.7162" height="16.2292" fill="white" transform="matrix(0.921425 0.388557 -0.418146 0.90838 61.2178 64.0054)"/>
</clipPath>
<clipPath id="clip3_323_8752">
<rect width="16.7866" height="16.1565" fill="white" transform="matrix(0.970364 0.241647 -0.262319 0.964981 85.4951 35.3101)"/>
</clipPath>
</defs>
</svg>
