<svg width="23" height="18" viewBox="0 0 23 18" fill="none" xmlns="http://www.w3.org/2000/svg">
<path d="M20.4997 9.30992C20.4997 9.86625 20.7306 10.3998 21.1416 10.7932C21.5526 11.1865 22.1101 11.4075 22.6913 11.4075V15.6028C22.6913 16.1591 22.4604 16.6927 22.0494 17.086C21.6384 17.4794 21.081 17.7004 20.4997 17.7004H2.96698C2.38574 17.7004 1.8283 17.4794 1.41729 17.086C1.00629 16.6927 0.775391 16.1591 0.775391 15.6028V11.4075C1.35664 11.4075 1.91408 11.1865 2.32508 10.7932C2.73608 10.3998 2.96698 9.86625 2.96698 9.30992C2.96698 8.7536 2.73608 8.22006 2.32508 7.82668C1.91408 7.4333 1.35664 7.2123 0.775391 7.2123V3.01706C0.775391 2.46073 1.00629 1.92719 1.41729 1.53381C1.8283 1.14043 2.38574 0.919434 2.96698 0.919434H20.4997C21.081 0.919434 21.6384 1.14043 22.0494 1.53381C22.4604 1.92719 22.6913 2.46073 22.6913 3.01706V7.2123C22.1101 7.2123 21.5526 7.4333 21.1416 7.82668C20.7306 8.22006 20.4997 8.7536 20.4997 9.30992ZM16.6644 13.7674C16.6644 12.1942 13.377 11.4075 11.7333 11.4075C10.0897 11.4075 6.80227 12.1942 6.80227 13.7674V14.554H16.6644V13.7674ZM11.7333 9.57213C12.3872 9.57213 13.0144 9.3235 13.4767 8.88095C13.9391 8.4384 14.1989 7.83816 14.1989 7.2123C14.1989 6.58644 13.9391 5.98621 13.4767 5.54365C13.0144 5.1011 12.3872 4.85248 11.7333 4.85248C11.0794 4.85248 10.4523 5.1011 9.98995 5.54365C9.52757 5.98621 9.26781 6.58644 9.26781 7.2123C9.26781 7.83816 9.52757 8.4384 9.98995 8.88095C10.4523 9.3235 11.0794 9.57213 11.7333 9.57213Z" fill="#FF7C25"/>
</svg>
