<svg width="42" height="40" viewBox="0 0 42 40" fill="none" xmlns="http://www.w3.org/2000/svg">
<circle cx="19.8037" cy="19.5449" r="19.2647" stroke="#FFA624" stroke-width="0.558397"/>
<mask id="mask0_323_8675" style="mask-type:alpha" maskUnits="userSpaceOnUse" x="9" y="10" width="21" height="19">
<path d="M17.5704 17.8074C17.981 17.8074 18.3877 17.7287 18.767 17.576C19.1464 17.4232 19.4912 17.1992 19.7815 16.9169C20.0719 16.6346 20.3022 16.2995 20.4594 15.9306C20.6165 15.5618 20.6974 15.1665 20.6974 14.7672C20.6974 14.368 20.6165 13.9726 20.4594 13.6038C20.3022 13.2349 20.0719 12.8998 19.7815 12.6175C19.4912 12.3352 19.1464 12.1113 18.767 11.9585C18.3877 11.8057 17.981 11.7271 17.5704 11.7271C16.741 11.7271 15.9457 12.0474 15.3592 12.6175C14.7728 13.1876 14.4434 13.9609 14.4434 14.7672C14.4434 15.5735 14.7728 16.3468 15.3592 16.9169C15.9457 17.4871 16.741 17.8074 17.5704 17.8074Z" fill="white" stroke="white" stroke-width="2.23359" stroke-linecap="round" stroke-linejoin="round"/>
<path d="M23.6484 12.1616C24.1109 12.4319 24.4935 12.8139 24.759 13.2705C25.0246 13.7272 25.164 14.2429 25.1637 14.7675C25.164 15.292 25.0246 15.8078 24.759 16.2644C24.4935 16.7211 24.1109 17.1031 23.6484 17.3733" stroke="white" stroke-width="2.23359" stroke-linecap="round" stroke-linejoin="round"/>
<path d="M10.8691 26.8409V27.3621H24.2707V26.8409C24.2707 24.8952 24.2707 23.9223 23.8811 23.1788C23.5385 22.5251 22.9918 21.9936 22.3194 21.6605C21.5546 21.2817 20.554 21.2817 18.5527 21.2817H16.5871C14.5858 21.2817 13.5852 21.2817 12.8204 21.6605C12.148 21.9936 11.6013 22.5251 11.2587 23.1788C10.8691 23.9223 10.8691 24.8952 10.8691 26.8409Z" fill="white" stroke="white" stroke-width="2.23359" stroke-linecap="round" stroke-linejoin="round"/>
<path d="M28.7374 27.3623V26.8411C28.7374 24.8954 28.7374 23.9225 28.3479 23.179C28.0052 22.5253 27.4585 21.9937 26.7861 21.6606" stroke="white" stroke-width="2.23359" stroke-linecap="round" stroke-linejoin="round"/>
</mask>
<g mask="url(#mask0_323_8675)">
<path d="M9.08301 9.12109H30.5255V29.9679H9.08301V9.12109Z" fill="#FFA624"/>
</g>
</svg>
